REM DIRINDEX 1\6,1\2\7,1\2\8,1\2\9,1\3\10,1\3\11,1\4\12,1\4\13,1\4\14,1\5\15,1\5\16,1\5\17
REM DIRNAME cjc041,folder01,folder02,folder03,folder04,folder05,folder06,folder07,folder08,folder09,folder10,folder11,folder12,folder13,folder14,folder15,folder16
TITLE ""
FILE "3Q_t_0263-0278.mp3" MP3
  TRACK 01 AUDIO
    TITLE "10:cjc041_2131"
    INDEX 01 00:00:00
  TRACK 02 AUDIO
    TITLE "0:"
    INDEX 01 00:01:05
  TRACK 03 AUDIO
    TITLE "11:cjc041_2132"
    INDEX 01 00:01:64
  TRACK 04 AUDIO
    TITLE "0:"
    INDEX 01 00:04:42
  TRACK 05 AUDIO
    TITLE "10:cjc041_2133"
    INDEX 01 00:05:18
  TRACK 06 AUDIO
    TITLE "0:"
    INDEX 01 00:06:33
  TRACK 07 AUDIO
    TITLE "11:cjc041_2134"
    INDEX 01 00:07:09
  TRACK 08 AUDIO
    TITLE "0:"
    INDEX 01 00:10:49
  TRACK 09 AUDIO
    TITLE "10:cjc041_2135"
    INDEX 01 00:11:31
  TRACK 10 AUDIO
    TITLE "0:"
    INDEX 01 00:12:38
  TRACK 11 AUDIO
    TITLE "11:cjc041_2136"
    INDEX 01 00:13:18
  TRACK 12 AUDIO
    TITLE "0:"
    INDEX 01 00:15:52
  TRACK 13 AUDIO
    TITLE "10:cjc041_2137"
    INDEX 01 00:16:28
  TRACK 14 AUDIO
    TITLE "0:"
    INDEX 01 00:17:35
  TRACK 15 AUDIO
    TITLE "11:cjc041_2138"
    INDEX 01 00:18:11
  TRACK 16 AUDIO
    TITLE "0:"
    INDEX 01 00:19:11
  TRACK 17 AUDIO
    TITLE "10:cjc041_2139"
    INDEX 01 00:19:65
  TRACK 18 AUDIO
    TITLE "0:"
    INDEX 01 00:20:71
  TRACK 19 AUDIO
    TITLE "11:cjc041_2140"
    INDEX 01 00:21:47
  TRACK 20 AUDIO
    TITLE "0:"
    INDEX 01 00:27:28
  TRACK 21 AUDIO
    TITLE "10:cjc041_2141"
    INDEX 01 00:28:13
  TRACK 22 AUDIO
    TITLE "0:"
    INDEX 01 00:29:25
  TRACK 23 AUDIO
    TITLE "11:cjc041_2142"
    INDEX 01 00:30:05
  TRACK 24 AUDIO
    TITLE "0:"
    INDEX 01 00:31:16
  TRACK 25 AUDIO
    TITLE "10:cjc041_2143"
    INDEX 01 00:31:71
  TRACK 26 AUDIO
    TITLE "0:"
    INDEX 01 00:33:11
  TRACK 27 AUDIO
    TITLE "11:cjc041_2144"
    INDEX 01 00:33:69
  TRACK 28 AUDIO
    TITLE "0:"
    INDEX 01 00:35:47
  TRACK 29 AUDIO
    TITLE "10:cjc041_2145"
    INDEX 01 00:36:33
  TRACK 30 AUDIO
    TITLE "0:"
    INDEX 01 00:37:38
  TRACK 31 AUDIO
    TITLE "11:cjc041_2146"
    INDEX 01 00:38:22
  TRACK 32 AUDIO
    TITLE "0:"
    INDEX 01 00:42:41
  TRACK 33 AUDIO
    TITLE "10:cjc041_2147"
    INDEX 01 00:43:27
  TRACK 34 AUDIO
    TITLE "0:"
    INDEX 01 00:44:28
  TRACK 35 AUDIO
    TITLE "11:cjc041_2148"
    INDEX 01 00:45:12
  TRACK 36 AUDIO
    TITLE "0:"
    INDEX 01 00:46:37
  TRACK 37 AUDIO
    TITLE "10:cjc041_2149"
    INDEX 01 00:47:23
  TRACK 38 AUDIO
    TITLE "0:"
    INDEX 01 00:48:53
  TRACK 39 AUDIO
    TITLE "11:cjc041_2150"
    INDEX 01 00:49:35
  TRACK 40 AUDIO
    TITLE "0:"
    INDEX 01 00:50:68
  TRACK 41 AUDIO
    TITLE "10:cjc041_2151"
    INDEX 01 00:51:44
  TRACK 42 AUDIO
    TITLE "0:"
    INDEX 01 00:52:59
  TRACK 43 AUDIO
    TITLE "11:cjc041_2152"
    INDEX 01 00:53:41
  TRACK 44 AUDIO
    TITLE "0:"
    INDEX 01 00:55:65
  TRACK 45 AUDIO
    TITLE "10:cjc041_2153"
    INDEX 01 00:56:45
  TRACK 46 AUDIO
    TITLE "0:"
    INDEX 01 00:57:58
  TRACK 47 AUDIO
    TITLE "11:cjc041_2154"
    INDEX 01 00:58:40
  TRACK 48 AUDIO
    TITLE "0:"
    INDEX 01 00:59:53
  TRACK 49 AUDIO
    TITLE "10:cjc041_2155"
    INDEX 01 01:00:35
  TRACK 50 AUDIO
    TITLE "0:"
    INDEX 01 01:01:52
  TRACK 51 AUDIO
    TITLE "11:cjc041_2156"
    INDEX 01 01:02:36
  TRACK 52 AUDIO
    TITLE "0:"
    INDEX 01 01:04:47
  TRACK 53 AUDIO
    TITLE "10:cjc041_2157"
    INDEX 01 01:05:26
  TRACK 54 AUDIO
    TITLE "0:"
    INDEX 01 01:06:45
  TRACK 55 AUDIO
    TITLE "11:cjc041_2158"
    INDEX 01 01:07:27
  TRACK 56 AUDIO
    TITLE "0:"
    INDEX 01 01:09:65
  TRACK 57 AUDIO
    TITLE "10:cjc041_2159"
    INDEX 01 01:10:39
  TRACK 58 AUDIO
    TITLE "0:"
    INDEX 01 01:11:43
  TRACK 59 AUDIO
    TITLE "11:cjc041_2160"
    INDEX 01 01:12:23
  TRACK 60 AUDIO
    TITLE "0:"
    INDEX 01 01:13:26
  TRACK 61 AUDIO
    TITLE "10:cjc041_2161"
    INDEX 01 01:14:08
  TRACK 62 AUDIO
    TITLE "0:"
    INDEX 01 01:15:40
  TRACK 63 AUDIO
    TITLE "11:cjc041_2162"
    INDEX 01 01:16:16
  TRACK 64 AUDIO
    TITLE "0:"
    INDEX 01 01:19:19
